<?xml version="1.0" encoding="utf-8"?>
<!-- Generator: Adobe Illustrator 23.1.0, SVG Export Plug-In . SVG Version: 6.00 Build 0)  -->
<svg version="1.1" id="Layer_1" xmlns="http://www.w3.org/2000/svg" xmlns:xlink="http://www.w3.org/1999/xlink" x="0px" y="0px"
	 viewBox="0 0 97 25" style="enable-background:new 0 0 97 25;" xml:space="preserve">
<style type="text/css">
	.st0{fill:#FFFFFF;}
	.st1{fill:url(#SVGID_1_);}
	.st2{fill:#4D4D4D;}
</style>
<g>
	<path d="M28.12,23.86c-0.12,0-0.24-0.05-0.36-0.14c-0.15-0.11-0.24-0.27-0.26-0.47c-0.01-0.06-0.02-0.13-0.03-0.21
		c-0.01-0.08-0.01-0.15-0.01-0.23c0.01-0.21,0.03-0.39,0.05-0.58l0.07-0.54c0.17-1.04,0.38-2.09,0.62-3.12
		c0.16-0.65,0.32-1.3,0.48-1.93c0.16-0.63,0.32-1.27,0.48-1.92l1.03-4.06c0.01-0.04,0.02-0.07,0.03-0.1
		c-0.41,0.02-0.83,0.05-1.23,0.09c-0.41,0.04-0.83,0.07-1.26,0.11l-0.08,0.13c-0.29,0.59-0.58,1.21-0.89,1.81
		c-0.3,0.61-0.62,1.22-0.95,1.82c-0.22,0.4-0.44,0.8-0.66,1.18c-0.22,0.38-0.46,0.77-0.7,1.15c-0.33,0.53-0.7,1-1.12,1.42
		c-0.15,0.15-0.3,0.28-0.46,0.4c-0.16,0.12-0.34,0.24-0.52,0.33c-0.11,0.06-0.24,0.12-0.36,0.16c-0.14,0.04-0.28,0.06-0.44,0.06
		c-0.66,0-1.2-0.25-1.61-0.76c-0.08-0.11-0.15-0.21-0.21-0.31c-0.05-0.09-0.1-0.18-0.16-0.26c-0.14-0.27-0.23-0.53-0.3-0.79
		c-0.06-0.25-0.12-0.52-0.17-0.78c-0.11-0.67-0.14-1.35-0.11-2.01c0.03-0.73,0.13-1.45,0.27-2.15c0.15-0.7,0.37-1.4,0.68-2.08
		c0.23-0.53,0.52-1.03,0.86-1.48c0.34-0.46,0.74-0.87,1.19-1.24c0.61-0.5,1.28-0.85,2.01-1.05c0.22-0.05,0.43-0.08,0.63-0.08
		c0.25,0,0.5,0.04,0.73,0.12c0.34,0.11,0.63,0.32,0.87,0.62c0.1,0.14,0.15,0.28,0.15,0.43v0.03l-0.01,0.03
		c-0.04,0.2-0.17,0.28-0.24,0.32c-0.05,0.02-0.1,0.03-0.15,0.03c-0.06,0-0.14-0.01-0.24-0.07c-0.06-0.03-0.12-0.08-0.17-0.13
		l-0.1-0.1c-0.15-0.14-0.32-0.23-0.49-0.27c-0.09-0.02-0.18-0.03-0.27-0.03c-0.1,0-0.21,0.01-0.32,0.04
		c-0.28,0.05-0.54,0.14-0.78,0.27c-0.25,0.13-0.5,0.28-0.74,0.46c-0.28,0.2-0.54,0.41-0.75,0.65c-0.22,0.24-0.43,0.5-0.61,0.78
		c-0.25,0.38-0.47,0.79-0.64,1.2c-0.18,0.42-0.33,0.86-0.45,1.31c-0.22,0.84-0.34,1.73-0.37,2.65c-0.02,0.72,0.06,1.45,0.25,2.16
		c0.08,0.34,0.2,0.64,0.35,0.89c0.07,0.11,0.16,0.21,0.26,0.3c0.1,0.08,0.23,0.15,0.37,0.19c0.07,0.02,0.15,0.03,0.23,0.03l0,0
		c0.1,0,0.18-0.02,0.26-0.05c0.19-0.08,0.35-0.18,0.5-0.28c0.17-0.12,0.32-0.25,0.45-0.39c0.14-0.16,0.28-0.32,0.41-0.48
		c0.16-0.2,0.31-0.42,0.44-0.64c0.16-0.26,0.32-0.53,0.48-0.79c0.16-0.27,0.32-0.53,0.48-0.8c0.37-0.66,0.73-1.34,1.08-2.01
		c0.3-0.58,0.6-1.18,0.89-1.78l-3.21,0.4c-0.22,0.02-0.43,0.05-0.63,0.08c-0.22,0.04-0.44,0.06-0.66,0.09
		c-0.05,0.01-0.13,0.02-0.21,0.02h-0.18c-0.24,0-0.42-0.13-0.49-0.35c-0.08-0.2-0.03-0.43,0.14-0.6l0.02-0.02l0.17-0.11
		c0.11-0.09,0.22-0.11,0.29-0.11c0.07,0,0.17,0.02,0.27,0.1c0.02,0,0.04-0.01,0.07-0.01c0.17-0.02,0.33-0.05,0.49-0.09
		c0.17-0.04,0.34-0.06,0.5-0.09l0.85-0.1c0.28-0.03,0.57-0.06,0.86-0.09c0.38-0.04,0.77-0.08,1.15-0.12l1.09-0.1
		c0.01-0.01,0.02-0.03,0.03-0.04c0.02-0.03,0.04-0.07,0.05-0.11c0.62-1.32,1.28-2.62,1.96-3.88c0.44-0.85,0.93-1.71,1.45-2.53
		c0.33-0.52,0.68-0.99,1.06-1.41c0.06-0.07,0.12-0.14,0.2-0.22l0.21-0.21c0.16-0.15,0.34-0.24,0.55-0.28
		c0.05-0.01,0.1-0.02,0.15-0.02c0.14,0,0.34,0.05,0.5,0.26c0.11,0.16,0.17,0.31,0.19,0.46c0.02,0.23,0.03,0.45,0.01,0.66
		c-0.02,0.21-0.04,0.41-0.08,0.62c-0.07,0.44-0.16,0.9-0.27,1.34c-0.11,0.44-0.22,0.88-0.33,1.31l-0.94,3.73
		c0.06,0,0.12,0,0.18-0.01c0.14-0.01,0.28-0.01,0.42-0.01h0.46c0.15,0,0.32,0.01,0.48,0.02c0,0,0,0,0,0c0.06,0,0.15,0.01,0.29,0.04
		c0.26,0.07,0.37,0.28,0.3,0.51c-0.08,0.24-0.25,0.3-0.34,0.31c-0.07,0.01-0.14,0.02-0.22,0.02h-0.18l-1.53,0.05
		c-0.04,0-0.07,0-0.1,0c0,0.02-0.01,0.04-0.01,0.05c-0.19,0.75-0.38,1.51-0.57,2.26c-0.19,0.75-0.38,1.51-0.57,2.26
		c-0.17,0.68-0.34,1.36-0.51,2.03c-0.17,0.67-0.34,1.35-0.49,2.02c-0.14,0.57-0.26,1.14-0.37,1.69c-0.11,0.56-0.23,1.14-0.34,1.72
		l0,0.02l-0.01,0.02c-0.02,0.04-0.02,0.09-0.03,0.14c-0.01,0.08-0.02,0.15-0.03,0.23c-0.01,0.05-0.01,0.11,0.01,0.14
		c0.08,0.13,0.1,0.27,0.06,0.4c-0.04,0.12-0.1,0.21-0.2,0.28C28.34,23.82,28.23,23.86,28.12,23.86z M32.29,2.72
		c-0.19,0.22-0.38,0.47-0.55,0.71c-0.18,0.27-0.36,0.55-0.53,0.84c-0.36,0.6-0.71,1.22-1.04,1.83c-0.33,0.6-0.65,1.23-0.97,1.85
		c-0.17,0.34-0.34,0.68-0.51,1.03c-0.13,0.27-0.26,0.53-0.39,0.79c0.33-0.02,0.66-0.04,0.98-0.05c0.42-0.03,0.84-0.05,1.27-0.07
		l0.14-0.56l0.98-3.75L32.01,4C32.12,3.58,32.21,3.14,32.29,2.72z"/>
	<path d="M26.95,10.61c-0.09,0.01-0.17,0.02-0.23,0.02c-0.06,0-0.12,0.01-0.18,0.02l-3.29,0.41c-0.22,0.02-0.43,0.05-0.64,0.09
		c-0.21,0.03-0.43,0.06-0.64,0.09c-0.06,0.01-0.12,0.02-0.18,0.02c-0.06,0-0.12,0-0.18,0c-0.11,0-0.19-0.05-0.22-0.15
		c-0.05-0.11-0.02-0.22,0.07-0.31l0.15-0.1c0.08-0.07,0.15-0.07,0.22,0c0.05,0.05,0.09,0.07,0.14,0.06c0.05-0.01,0.1-0.01,0.15-0.03
		c0.16-0.02,0.32-0.05,0.49-0.09c0.17-0.03,0.33-0.06,0.49-0.09c0.28-0.03,0.57-0.07,0.85-0.1c0.28-0.03,0.56-0.06,0.85-0.09
		c0.39-0.05,0.77-0.09,1.15-0.12c0.38-0.03,0.77-0.07,1.15-0.1c0.02,0,0.04,0,0.05-0.01c0.01-0.01,0.03-0.01,0.05-0.03
		c0.02-0.05,0.05-0.09,0.08-0.14c0.03-0.05,0.05-0.1,0.08-0.15c0.62-1.3,1.27-2.58,1.95-3.85c0.44-0.86,0.92-1.69,1.44-2.52
		c0.32-0.5,0.66-0.96,1.03-1.37c0.06-0.07,0.12-0.14,0.19-0.21c0.07-0.07,0.14-0.14,0.21-0.21c0.11-0.1,0.25-0.17,0.41-0.21
		c0.15-0.03,0.27,0.01,0.36,0.14c0.08,0.11,0.13,0.22,0.14,0.33c0.02,0.21,0.03,0.41,0.01,0.61c-0.02,0.2-0.04,0.4-0.08,0.59
		C32.93,3.56,32.85,4,32.74,4.44c-0.11,0.44-0.22,0.88-0.33,1.31L31.43,9.6c-0.02,0.09-0.04,0.15-0.05,0.19
		c0.02,0.03,0.05,0.05,0.07,0.05c0.02,0,0.05,0,0.07,0c0.14,0,0.27,0,0.41-0.01c0.14-0.01,0.27-0.01,0.41-0.01c0.16,0,0.31,0,0.46,0
		c0.15,0,0.3,0.01,0.46,0.02c0.06,0,0.14,0.01,0.26,0.03c0.08,0.02,0.11,0.07,0.09,0.15c-0.02,0.07-0.06,0.1-0.1,0.1
		c-0.06,0.01-0.12,0.02-0.18,0.02c-0.06,0-0.12,0-0.18,0l-1.54,0.05c-0.06,0-0.11,0-0.15,0.01c-0.05,0.01-0.1,0.01-0.15,0.03
		c-0.02,0.07-0.05,0.15-0.07,0.24c-0.19,0.75-0.38,1.51-0.57,2.26c-0.19,0.75-0.38,1.51-0.57,2.26c-0.17,0.68-0.34,1.36-0.51,2.03
		c-0.17,0.67-0.34,1.34-0.5,2.03c-0.14,0.57-0.26,1.14-0.38,1.7c-0.11,0.56-0.23,1.14-0.34,1.72c-0.02,0.07-0.04,0.14-0.04,0.21
		c-0.01,0.07-0.01,0.14-0.03,0.21c-0.02,0.14-0.01,0.25,0.05,0.34c0.03,0.06,0.04,0.11,0.03,0.17c-0.02,0.06-0.05,0.1-0.09,0.14
		c-0.1,0.08-0.21,0.07-0.33-0.02c-0.09-0.07-0.14-0.16-0.15-0.27c-0.01-0.07-0.02-0.14-0.03-0.21c-0.01-0.07-0.01-0.14-0.01-0.21
		c0.01-0.18,0.03-0.36,0.05-0.54c0.02-0.18,0.05-0.36,0.07-0.54c0.17-1.03,0.38-2.06,0.62-3.1c0.16-0.65,0.32-1.29,0.48-1.92
		c0.16-0.63,0.32-1.27,0.48-1.92l1.03-4.05c0.02-0.08,0.05-0.15,0.07-0.22c0.02-0.07,0.03-0.14,0.03-0.22l-0.02-0.02h-0.21
		c-0.47,0.02-0.93,0.05-1.39,0.09c-0.46,0.04-0.92,0.08-1.4,0.13l-0.15,0.26c-0.3,0.62-0.6,1.23-0.9,1.83
		c-0.3,0.6-0.62,1.21-0.95,1.81c-0.22,0.4-0.44,0.79-0.66,1.17c-0.22,0.38-0.45,0.76-0.69,1.14c-0.32,0.51-0.68,0.97-1.08,1.37
		c-0.14,0.14-0.28,0.26-0.43,0.38c-0.15,0.11-0.31,0.22-0.48,0.31c-0.1,0.06-0.21,0.1-0.32,0.14c-0.11,0.03-0.23,0.05-0.35,0.05
		c-0.57,0-1.03-0.22-1.39-0.65c-0.07-0.09-0.13-0.18-0.18-0.27c-0.05-0.09-0.11-0.18-0.16-0.27c-0.11-0.23-0.2-0.46-0.27-0.71
		c-0.06-0.25-0.12-0.5-0.16-0.76c-0.1-0.65-0.14-1.3-0.1-1.95c0.03-0.72,0.12-1.42,0.27-2.1c0.14-0.68,0.36-1.36,0.66-2.02
		c0.23-0.51,0.5-0.99,0.83-1.43c0.33-0.44,0.7-0.84,1.14-1.19c0.58-0.48,1.21-0.81,1.9-0.99c0.42-0.1,0.82-0.09,1.2,0.03
		c0.29,0.09,0.53,0.27,0.74,0.53c0.06,0.08,0.09,0.17,0.09,0.26c-0.01,0.06-0.04,0.09-0.08,0.11c-0.04,0.02-0.08,0.01-0.13-0.03
		c-0.05-0.02-0.09-0.05-0.12-0.09c-0.03-0.03-0.07-0.07-0.1-0.1c-0.19-0.18-0.4-0.3-0.63-0.35c-0.23-0.05-0.47-0.05-0.72,0.01
		c-0.3,0.06-0.58,0.15-0.85,0.29c-0.27,0.14-0.53,0.3-0.78,0.48c-0.3,0.21-0.56,0.43-0.8,0.68c-0.23,0.25-0.45,0.52-0.64,0.82
		c-0.26,0.4-0.48,0.82-0.67,1.25c-0.18,0.43-0.34,0.88-0.46,1.35c-0.23,0.87-0.35,1.77-0.38,2.72c-0.02,0.75,0.06,1.5,0.26,2.24
		c0.09,0.36,0.22,0.68,0.38,0.96c0.09,0.15,0.2,0.27,0.33,0.38c0.13,0.1,0.28,0.18,0.45,0.24c0.26,0.07,0.5,0.06,0.7-0.03
		c0.21-0.09,0.39-0.19,0.55-0.31c0.18-0.13,0.35-0.27,0.5-0.43c0.15-0.16,0.29-0.33,0.43-0.5c0.17-0.22,0.33-0.44,0.46-0.67
		c0.16-0.26,0.32-0.53,0.48-0.8c0.16-0.27,0.32-0.53,0.48-0.8c0.38-0.67,0.74-1.35,1.09-2.03c0.35-0.68,0.69-1.36,1.02-2.04
		c0.02-0.05,0.05-0.1,0.07-0.15V10.61z M30.73,9.92c0.03-0.03,0.06-0.09,0.09-0.15l0.15-0.62l0.98-3.75
		c0.11-0.44,0.23-0.89,0.34-1.33c0.11-0.44,0.21-0.9,0.29-1.35c0.02-0.09,0.03-0.18,0.03-0.26c0-0.08,0.01-0.17,0.02-0.26
		c0-0.06-0.02-0.1-0.07-0.12C32.53,2.1,32.52,2.1,32.5,2.11c-0.02,0.01-0.04,0.02-0.06,0.04l-0.31,0.31
		c-0.23,0.26-0.44,0.53-0.62,0.8c-0.19,0.27-0.37,0.56-0.54,0.86c-0.37,0.62-0.71,1.23-1.04,1.84c-0.33,0.61-0.66,1.23-0.98,1.86
		c-0.17,0.34-0.34,0.69-0.51,1.04c-0.17,0.35-0.34,0.69-0.51,1.04c-0.02,0.02-0.04,0.05-0.06,0.08c-0.02,0.03-0.01,0.07,0.01,0.11
		c0.48-0.02,0.96-0.05,1.43-0.08C29.77,9.97,30.25,9.94,30.73,9.92z"/>
	<path d="M32.26,18.15c-0.21,0-0.33-0.09-0.39-0.17c-0.08-0.1-0.12-0.23-0.12-0.39c0-0.09,0.02-0.18,0.05-0.28
		c0.02-0.08,0.05-0.17,0.08-0.26c0.03-0.09,0.06-0.17,0.1-0.26c0.08-0.2,0.17-0.39,0.28-0.59c0.1-0.18,0.21-0.37,0.33-0.56
		c0.27-0.47,0.57-0.93,0.88-1.37c0.31-0.44,0.64-0.87,0.97-1.29c0.07-0.1,0.11-0.2,0.11-0.32c-0.02-0.31-0.07-0.61-0.16-0.87
		c-0.09-0.25-0.23-0.49-0.44-0.72c-0.05-0.05-0.11-0.12-0.17-0.19c-0.05-0.06-0.09-0.11-0.14-0.16l-0.13-0.13
		c-0.05-0.05-0.1-0.11-0.15-0.19c-0.13-0.18-0.25-0.48-0.1-0.89c0.07-0.17,0.15-0.32,0.24-0.46c0.25-0.39,0.58-0.72,0.96-0.99
		c0.11-0.1,0.26-0.17,0.42-0.19c0.02-0.01,0.07-0.01,0.11-0.01c0.21,0,0.45,0.13,0.5,0.48l0,0.02v0.02c0,0.11-0.03,0.22-0.08,0.33
		C35.31,8.88,35.17,8.97,35,8.97c-0.07,0-0.14-0.02-0.21-0.05c-0.26,0.22-0.47,0.5-0.63,0.82c-0.05,0.1-0.06,0.19,0.06,0.31
		l0.42,0.47c0.34,0.4,0.57,0.87,0.7,1.4c0.2-0.23,0.42-0.47,0.63-0.71c0.3-0.33,0.62-0.65,0.94-0.97c0.07-0.07,0.15-0.14,0.22-0.21
		c0.08-0.07,0.16-0.14,0.24-0.21c0.1-0.08,0.2-0.12,0.31-0.12c0.1,0,0.2,0.04,0.28,0.1c0.15,0.13,0.23,0.37,0.05,0.61
		c-0.04,0.06-0.09,0.11-0.14,0.16l-0.13,0.13c-0.36,0.36-0.73,0.73-1.08,1.1c-0.35,0.36-0.7,0.75-1.02,1.14l-0.04,0.04
		c-0.02,0.03-0.05,0.06-0.08,0.1c-0.06,0.06-0.09,0.14-0.11,0.26c-0.03,0.37-0.1,0.74-0.21,1.1c-0.1,0.35-0.24,0.7-0.4,1.05
		c-0.18,0.37-0.38,0.74-0.61,1.08c-0.23,0.35-0.51,0.67-0.82,0.96c-0.18,0.18-0.38,0.34-0.6,0.49c-0.12,0.07-0.25,0.12-0.39,0.15
		C32.34,18.15,32.3,18.15,32.26,18.15z M33.68,15.56c-0.15,0.22-0.29,0.45-0.42,0.69c0.16-0.22,0.31-0.45,0.45-0.7
		c0.03-0.05,0.06-0.1,0.09-0.16C33.76,15.45,33.72,15.51,33.68,15.56z"/>
	<path d="M34.71,8.62c-0.34,0.26-0.61,0.59-0.8,0.99c-0.11,0.23-0.07,0.44,0.12,0.63l0.41,0.46c0.36,0.43,0.59,0.95,0.68,1.54
		l0.05,0.26c0.05,0.01,0.07,0,0.09-0.03c0.01-0.03,0.03-0.05,0.05-0.08c0.28-0.34,0.58-0.68,0.88-1c0.3-0.33,0.61-0.65,0.93-0.97
		c0.07-0.07,0.14-0.14,0.21-0.21c0.07-0.07,0.15-0.14,0.23-0.21c0.08-0.07,0.15-0.07,0.22-0.02c0.07,0.06,0.07,0.13,0,0.22
		c-0.03,0.05-0.07,0.09-0.11,0.13c-0.04,0.04-0.08,0.08-0.13,0.13c-0.37,0.37-0.73,0.73-1.09,1.1c-0.36,0.37-0.7,0.76-1.04,1.15
		c-0.02,0.02-0.04,0.04-0.05,0.06c-0.01,0.02-0.03,0.04-0.05,0.06c-0.1,0.1-0.17,0.25-0.19,0.43c-0.03,0.36-0.1,0.72-0.2,1.05
		c-0.1,0.34-0.23,0.67-0.38,1c-0.17,0.36-0.37,0.71-0.59,1.04c-0.22,0.33-0.48,0.63-0.78,0.91c-0.17,0.17-0.36,0.33-0.56,0.46
		c-0.08,0.05-0.18,0.08-0.29,0.1c-0.21,0.03-0.31-0.06-0.31-0.27c0-0.06,0.01-0.12,0.03-0.19c0.02-0.09,0.05-0.18,0.08-0.26
		c0.03-0.08,0.06-0.16,0.09-0.24c0.08-0.19,0.17-0.38,0.27-0.56c0.1-0.18,0.2-0.37,0.32-0.55c0.27-0.47,0.56-0.92,0.87-1.35
		c0.31-0.43,0.63-0.86,0.96-1.28c0.11-0.15,0.17-0.31,0.17-0.5c-0.02-0.35-0.08-0.67-0.17-0.96c-0.1-0.3-0.27-0.57-0.5-0.82
		c-0.06-0.06-0.11-0.12-0.16-0.18c-0.05-0.06-0.11-0.12-0.16-0.18c-0.05-0.05-0.09-0.09-0.13-0.13c-0.04-0.04-0.08-0.09-0.11-0.15
		c-0.14-0.18-0.16-0.39-0.07-0.63c0.06-0.15,0.13-0.28,0.21-0.39c0.24-0.36,0.54-0.67,0.89-0.92c0.09-0.08,0.19-0.13,0.29-0.14
		c0.17-0.03,0.27,0.04,0.29,0.22c0,0.07-0.02,0.14-0.05,0.21c-0.06,0.11-0.15,0.13-0.27,0.05c-0.02-0.01-0.04-0.02-0.05-0.03
		c-0.01-0.01-0.03-0.03-0.05-0.05L34.71,8.62z M34.64,13.74c-0.02,0.02-0.04,0.04-0.05,0.06c-0.01,0.02-0.02,0.04-0.03,0.06
		l-0.36,0.46c-0.26,0.36-0.51,0.73-0.75,1.09c-0.24,0.36-0.46,0.74-0.67,1.14c-0.07,0.14-0.13,0.28-0.2,0.42
		c-0.06,0.14-0.12,0.28-0.18,0.42c-0.01,0.02-0.02,0.07-0.02,0.14c0.23-0.13,0.49-0.36,0.79-0.7c0.3-0.34,0.56-0.72,0.79-1.13
		c0.22-0.38,0.39-0.75,0.52-1.11c0.13-0.37,0.19-0.64,0.16-0.82V13.74z"/>
	<path d="M37.39,13.97c-0.13,0-0.45-0.05-0.59-0.47c-0.04-0.13-0.06-0.26-0.06-0.39c0-0.11,0-0.22-0.01-0.32
		c-0.01-0.12,0-0.25,0.01-0.38c0.06-0.51,0.13-1.01,0.23-1.51c0.09-0.5,0.22-0.99,0.39-1.48l0.16-0.43l0.01-0.01
		c0.05-0.1,0.11-0.18,0.19-0.26c0.1-0.1,0.22-0.15,0.36-0.15c0.06,0,0.12,0.01,0.19,0.03c0.14,0.05,0.23,0.17,0.25,0.32
		c0.01,0.07,0.01,0.14,0,0.23c-0.01,0.09-0.02,0.17-0.05,0.24L38.42,9.5c-0.18,0.56-0.32,1.15-0.42,1.73
		c-0.08,0.48-0.16,0.96-0.22,1.44c0.09-0.07,0.18-0.13,0.27-0.2c0.11-0.08,0.22-0.17,0.34-0.26c0.21-0.19,0.44-0.4,0.66-0.6
		c0.22-0.21,0.45-0.41,0.68-0.62c0.21-0.19,0.42-0.39,0.62-0.59c0.21-0.21,0.42-0.41,0.64-0.61c0.11-0.11,0.24-0.18,0.37-0.18
		c0.11,0,0.22,0.05,0.3,0.14c0.16,0.17,0.17,0.4,0.03,0.62c-0.06,0.09-0.12,0.15-0.17,0.2c-0.4,0.38-0.79,0.77-1.19,1.14
		c-0.41,0.38-0.81,0.76-1.23,1.14c-0.17,0.15-0.33,0.3-0.49,0.43c-0.16,0.13-0.32,0.26-0.48,0.39c-0.11,0.09-0.26,0.18-0.46,0.25
		C37.57,13.95,37.48,13.97,37.39,13.97z M38.29,8.51c-0.2,0-0.31-0.08-0.37-0.15c-0.06-0.07-0.12-0.19-0.1-0.38
		c0.01-0.12,0.05-0.23,0.13-0.32l0.16-0.16c0.06-0.06,0.12-0.11,0.19-0.17c0.1-0.07,0.2-0.11,0.3-0.11c0.09,0,0.19,0.03,0.27,0.09
		c0.15,0.11,0.23,0.27,0.23,0.47v0.07l-0.03,0.06C39.06,8,39.01,8.08,38.95,8.14C38.9,8.2,38.84,8.25,38.77,8.3l0.2,0.2L38.29,8.51z
		"/>
	<path d="M41.18,10.01c0.11-0.11,0.21-0.13,0.27-0.06c0.07,0.07,0.07,0.16,0,0.27c-0.05,0.07-0.09,0.11-0.12,0.14
		c-0.4,0.39-0.8,0.77-1.21,1.15c-0.41,0.38-0.81,0.76-1.22,1.14c-0.16,0.15-0.32,0.29-0.48,0.42c-0.16,0.13-0.32,0.26-0.48,0.38
		c-0.09,0.08-0.22,0.15-0.38,0.21c-0.25,0.09-0.42,0.01-0.5-0.24c-0.03-0.1-0.05-0.21-0.05-0.31c0-0.11,0-0.23-0.01-0.33
		c-0.01-0.11,0-0.22,0.01-0.33c0.06-0.5,0.13-1,0.22-1.48c0.09-0.48,0.22-0.97,0.38-1.45l0.15-0.41c0.03-0.07,0.08-0.13,0.14-0.19
		c0.07-0.07,0.15-0.09,0.26-0.05c0.03,0.01,0.05,0.04,0.06,0.09c0.01,0.05,0.01,0.1,0,0.16c-0.01,0.06-0.02,0.12-0.03,0.17
		c-0.02,0.05-0.03,0.09-0.04,0.13c-0.18,0.58-0.33,1.17-0.43,1.77c-0.1,0.6-0.19,1.21-0.27,1.82c0,0.09,0.06,0.12,0.17,0.08
		c0.11-0.04,0.19-0.08,0.24-0.11c0.13-0.09,0.25-0.18,0.36-0.27c0.11-0.09,0.23-0.17,0.34-0.27c0.23-0.21,0.45-0.41,0.68-0.62
		c0.22-0.21,0.45-0.41,0.68-0.62c0.22-0.19,0.43-0.39,0.63-0.6C40.75,10.4,40.96,10.2,41.18,10.01z M38.29,8.23
		c-0.15,0-0.21-0.07-0.19-0.22c0-0.06,0.02-0.1,0.05-0.14c0.06-0.06,0.11-0.11,0.16-0.16c0.05-0.05,0.11-0.1,0.16-0.15
		c0.08-0.06,0.16-0.06,0.23-0.01c0.07,0.05,0.11,0.13,0.11,0.23c-0.01,0.02-0.02,0.05-0.03,0.08c-0.01,0.03-0.02,0.05-0.04,0.08
		c-0.1,0.11-0.23,0.2-0.39,0.26c-0.01,0.01-0.04,0.02-0.09,0.02L38.29,8.23z"/>
	<path d="M39.81,21.38c-0.11,0-0.22-0.04-0.33-0.12c-0.22-0.17-0.34-0.41-0.39-0.74c-0.02-0.21-0.03-0.43-0.02-0.64
		c0.01-0.21,0.03-0.41,0.05-0.61c0.06-0.44,0.13-0.86,0.22-1.27c0.09-0.41,0.18-0.82,0.29-1.22c0.14-0.51,0.27-1.02,0.39-1.51
		c0.13-0.5,0.25-1,0.38-1.51c0.16-0.6,0.32-1.21,0.48-1.85c0.1-0.4,0.2-0.8,0.3-1.18c-0.01,0-0.01-0.01-0.02-0.01
		c-0.2-0.09-0.3-0.28-0.26-0.5c0.01-0.05,0.02-0.11,0.05-0.18c0.18-0.49,0.35-1.03,0.5-1.6c0.16-0.59,0.32-1.14,0.48-1.66l0.39-1.26
		c-0.08,0.02-0.17,0.03-0.25,0.05c-0.43,0.07-0.85,0.14-1.26,0.22c-0.41,0.07-0.84,0.14-1.27,0.2c-0.28,0.05-0.57,0.08-0.86,0.11
		c-0.16,0.02-0.33,0.03-0.5,0.03c-0.13,0-0.27-0.01-0.4-0.02c-0.05,0.02-0.1,0.03-0.16,0.03c-0.02,0-0.04,0-0.06,0
		c-0.16,0-0.3-0.07-0.39-0.19c-0.1-0.14-0.11-0.31-0.04-0.48c0.05-0.11,0.12-0.2,0.2-0.28c0.1-0.1,0.22-0.16,0.34-0.16
		c0.08,0,0.23,0.03,0.36,0.19l0.24,0c0.51-0.02,1.03-0.07,1.53-0.15c0.49-0.08,0.97-0.16,1.45-0.23c0.46-0.07,0.91-0.14,1.37-0.22
		l0-0.01c0.11-0.39,0.22-0.78,0.32-1.17c0.1-0.4,0.21-0.81,0.31-1.21c0.02-0.07,0.03-0.11,0.03-0.16c0.01-0.09,0.03-0.18,0.06-0.27
		c0.02-0.09,0.05-0.18,0.08-0.24c0.06-0.15,0.21-0.25,0.39-0.25c0.04,0,0.08,0.01,0.13,0.02c0.21,0.06,0.34,0.22,0.34,0.41v0.18
		c0,0.08-0.01,0.16-0.02,0.23L44.1,2.93c-0.07,0.3-0.14,0.6-0.21,0.91c-0.05,0.21-0.09,0.43-0.14,0.64l1.51-0.22l1.33-0.21l0.72-0.1
		c0.24-0.03,0.49-0.06,0.73-0.09l1.23-0.14l1.6-0.15c0.17-0.02,0.35-0.04,0.53-0.04c0.17-0.01,0.34-0.01,0.5-0.03
		c0.28-0.02,0.57-0.04,0.86-0.04c0.28-0.01,0.56-0.01,0.84-0.03l0.17,0c0.06,0,0.13,0.01,0.21,0.02c0.3,0.06,0.4,0.27,0.4,0.45
		c0,0.25-0.16,0.44-0.42,0.49l-0.03,0H53.7c-0.39,0.01-0.79,0.02-1.18,0.02c-0.38,0-0.77,0.01-1.16,0.03
		c-0.37,0.02-0.75,0.05-1.12,0.08c-0.37,0.03-0.75,0.06-1.12,0.09c-0.27,0.02-0.54,0.05-0.81,0.08l-0.82,0.1
		c-0.31,0.03-0.62,0.07-0.92,0.11s-0.61,0.08-0.92,0.13l-2,0.31c-0.02,0.01-0.05,0.01-0.08,0.02c-0.02,0.09-0.13,0.56-0.17,0.71
		l-0.67,2.62c-0.26,0.98-0.52,1.98-0.79,3c-0.26,1.02-0.52,2.02-0.79,3.01l-0.82,3.23c-0.08,0.32-0.14,0.65-0.2,0.97
		c-0.05,0.32-0.09,0.64-0.12,0.96C40,19.95,40,20.03,40,20.11c0.01,0.1,0.01,0.2,0.01,0.3c0,0.03,0.01,0.08,0.07,0.14
		c0.25,0.25,0.19,0.51,0.07,0.66C40.07,21.31,39.95,21.38,39.81,21.38z"/>
	<path d="M41.63,10.13c0.01-0.03,0.01-0.04,0-0.02c-0.01,0.02-0.03,0.05-0.04,0.09c-0.02,0.04-0.03,0.08-0.05,0.12
		c-0.02,0.04-0.03,0.07-0.04,0.08c-0.07,0.07-0.14,0.09-0.22,0.05c-0.08-0.03-0.11-0.1-0.09-0.21c0-0.02,0.01-0.06,0.03-0.1
		c0.18-0.5,0.35-1.05,0.51-1.63c0.16-0.59,0.32-1.14,0.48-1.65l0.46-1.49c0.01-0.02,0.02-0.05,0.02-0.08c0-0.03,0.01-0.06,0.02-0.09
		c-0.13-0.01-0.24-0.01-0.35,0.02c-0.11,0.02-0.22,0.05-0.33,0.07c-0.42,0.07-0.84,0.14-1.26,0.21c-0.42,0.07-0.84,0.14-1.26,0.2
		c-0.28,0.05-0.57,0.08-0.85,0.11c-0.28,0.03-0.56,0.03-0.85,0.01c-0.03,0-0.07,0.01-0.1,0.02c-0.03,0.01-0.07,0.02-0.1,0.02
		c-0.09,0.01-0.16-0.01-0.2-0.07c-0.04-0.06-0.04-0.13-0.01-0.21c0.03-0.07,0.08-0.13,0.14-0.19c0.1-0.1,0.19-0.1,0.27,0.02
		c0.05,0.07,0.11,0.1,0.21,0.1h0.26c0.54-0.02,1.06-0.07,1.57-0.15c0.49-0.08,0.98-0.16,1.45-0.23c0.48-0.07,0.96-0.15,1.44-0.23
		c0.01,0,0.04-0.01,0.09-0.03c0.01-0.02,0.02-0.05,0.03-0.07c0.01-0.02,0.02-0.05,0.03-0.07c0.11-0.4,0.22-0.8,0.33-1.21
		c0.1-0.4,0.21-0.81,0.31-1.21c0.02-0.07,0.04-0.14,0.04-0.21c0.01-0.07,0.02-0.14,0.04-0.21c0.02-0.09,0.05-0.16,0.07-0.21
		c0.03-0.08,0.1-0.11,0.19-0.09c0.08,0.02,0.12,0.07,0.12,0.14c0,0.06,0,0.12,0,0.18c0,0.06-0.01,0.12-0.02,0.18l-0.15,0.77
		c-0.07,0.3-0.14,0.6-0.21,0.9c-0.07,0.3-0.13,0.6-0.19,0.9v0.12h0.14l1.75-0.26l1.33-0.21c0.24-0.03,0.48-0.07,0.72-0.1
		c0.24-0.03,0.48-0.06,0.72-0.09c0.21-0.02,0.41-0.05,0.62-0.07C48.9,4.05,49.1,4.02,49.31,4l1.59-0.15
		c0.17-0.02,0.34-0.04,0.51-0.04c0.17-0.01,0.34-0.01,0.51-0.03c0.28-0.02,0.57-0.04,0.85-0.04c0.28-0.01,0.56-0.01,0.85-0.03
		c0.06,0,0.11,0,0.15,0c0.05,0,0.1,0.01,0.15,0.02c0.11,0.02,0.17,0.08,0.17,0.17c0,0.11-0.06,0.18-0.19,0.21H53.7
		c-0.4,0.01-0.79,0.02-1.18,0.02c-0.39,0-0.78,0.01-1.18,0.03c-0.38,0.02-0.75,0.05-1.13,0.08c-0.38,0.03-0.75,0.06-1.13,0.09
		c-0.27,0.02-0.55,0.05-0.82,0.09c-0.27,0.03-0.55,0.07-0.82,0.1c-0.31,0.03-0.62,0.07-0.92,0.11c-0.31,0.04-0.62,0.08-0.92,0.13
		l-2,0.31c-0.05,0.01-0.09,0.02-0.13,0.03c-0.04,0.01-0.09,0.01-0.15,0.03c-0.03,0.16-0.07,0.31-0.1,0.45
		c-0.03,0.14-0.07,0.29-0.1,0.44l-0.67,2.62c-0.26,0.98-0.52,1.98-0.79,3c-0.26,1.02-0.52,2.02-0.79,3l-0.82,3.23
		c-0.08,0.33-0.15,0.66-0.21,0.99c-0.06,0.33-0.1,0.66-0.12,0.99c-0.01,0.09-0.01,0.19-0.01,0.28c0.01,0.1,0.01,0.19,0.01,0.28
		c0,0.13,0.05,0.24,0.15,0.34c0.1,0.1,0.12,0.19,0.05,0.27c-0.07,0.09-0.17,0.09-0.29,0c-0.15-0.11-0.24-0.3-0.27-0.55
		c-0.02-0.19-0.03-0.39-0.02-0.59c0.01-0.2,0.03-0.4,0.05-0.59c0.06-0.42,0.13-0.84,0.21-1.24c0.09-0.41,0.18-0.81,0.28-1.21
		c0.14-0.51,0.27-1.02,0.39-1.51c0.13-0.5,0.25-1,0.38-1.51c0.16-0.59,0.32-1.21,0.48-1.85C41.31,11.34,41.47,10.72,41.63,10.13z"/>
	<path d="M49.95,23.69c-0.06,0-0.12-0.01-0.18-0.03c-0.21-0.07-0.34-0.26-0.34-0.52c0-0.07,0.01-0.15,0.04-0.26
		c0.06-0.46,0.14-0.92,0.23-1.36c0.1-0.45,0.2-0.89,0.32-1.33l1.06-4.11c-0.07,0.01-0.13,0.02-0.18,0.02
		c-0.1,0.01-0.24,0.02-0.37,0.03c-0.14,0.01-0.27,0.01-0.4,0.01c-0.18,0-0.37-0.04-0.55-0.1c-0.12-0.04-0.24-0.11-0.36-0.21
		L49.2,15.8l-0.01-0.01c-0.21-0.21-0.27-0.49-0.18-0.78c0.05-0.21,0.15-0.37,0.3-0.49c0.12-0.11,0.27-0.22,0.42-0.31
		c0.34-0.22,0.72-0.42,1.11-0.58l0.93-0.36c0.01,0,0.02-0.01,0.04-0.06l0.74-2.64c0.25-0.87,0.5-1.76,0.76-2.65
		c0.13-0.42,0.25-0.84,0.38-1.26c0.1-0.33,0.2-0.66,0.3-1c-0.54,0.21-1.08,0.44-1.6,0.67c-0.61,0.27-1.23,0.57-1.84,0.9
		c-0.43,0.22-0.85,0.47-1.25,0.72c-0.4,0.25-0.78,0.54-1.15,0.85c-0.22,0.18-0.42,0.39-0.61,0.6c-0.19,0.22-0.36,0.45-0.51,0.7
		c-0.14,0.24-0.25,0.5-0.31,0.74c-0.08,0.33,0,0.57,0.26,0.77l0.31,0.18l0.15,0.08c0.18,0.11,0.25,0.31,0.18,0.49
		c-0.07,0.17-0.21,0.26-0.38,0.26c-0.13,0-0.25-0.03-0.37-0.07c-0.36-0.11-0.66-0.34-0.88-0.67c-0.13-0.2-0.2-0.41-0.23-0.62
		c-0.02-0.19-0.01-0.39,0.03-0.6c0.02-0.17,0.07-0.35,0.13-0.52c0.06-0.17,0.14-0.33,0.22-0.49c0.3-0.54,0.67-1.01,1.11-1.4
		c0.46-0.42,0.95-0.79,1.44-1.1c0.47-0.3,0.95-0.58,1.43-0.84c0.47-0.26,0.97-0.5,1.48-0.74c0.45-0.22,0.9-0.42,1.35-0.61
		c0.45-0.19,0.92-0.37,1.39-0.54l0.05-0.01l0.02-0.07l0.51-1.69c0.03-0.07,0.03-0.1,0.03-0.11c0.01-0.05,0.02-0.11,0.03-0.17
		c0.01-0.04,0.01-0.07,0.01-0.1l0,0c0,0,0-0.02-0.01-0.05c-0.1-0.23-0.01-0.47,0.24-0.6c0.08-0.04,0.17-0.07,0.26-0.07
		c0.16,0,0.31,0.08,0.41,0.23c0.07,0.1,0.12,0.21,0.15,0.33l0,0.02l0,0.02c0.01,0.12,0.02,0.24,0.01,0.35
		c-0.01,0.12-0.02,0.24-0.05,0.35l-0.3,1.11c0.81-0.27,1.65-0.51,2.49-0.72c0.54-0.13,1.08-0.24,1.62-0.34
		c0.53-0.1,1.08-0.18,1.64-0.23c0.45-0.05,0.91-0.07,1.36-0.08l0.15,0c0.4,0,0.81,0.02,1.22,0.06c0.2,0.02,0.4,0.05,0.59,0.08
		c0.21,0.03,0.41,0.08,0.62,0.14c0.22,0.06,0.42,0.14,0.59,0.22c0.79,0.4,1.1,1.08,0.9,1.96c-0.08,0.28-0.18,0.55-0.31,0.83
		c-0.21,0.39-0.44,0.75-0.7,1.08c-0.58,0.72-1.2,1.39-1.86,1.99c-0.65,0.6-1.34,1.18-2.05,1.71c-0.71,0.53-1.43,1.04-2.16,1.52
		c-0.73,0.47-1.46,0.94-2.18,1.38c-0.76,0.47-1.57,0.88-2.39,1.22c-0.82,0.33-1.67,0.63-2.53,0.88l-0.47,0.12
		c-0.03,0.09-0.08,0.24-0.16,0.51c-0.1,0.35-0.22,0.76-0.34,1.23c-0.13,0.47-0.26,0.98-0.39,1.52c-0.14,0.54-0.26,1.05-0.38,1.52
		c-0.11,0.47-0.21,0.88-0.29,1.24c-0.05,0.23-0.08,0.38-0.1,0.47c0.19,0.16,0.25,0.39,0.16,0.64c-0.07,0.21-0.21,0.42-0.42,0.6
		C50.22,23.63,50.09,23.69,49.95,23.69z M50.1,15.09c0.04,0,0.08,0.01,0.12,0.01c0.24,0,0.48-0.02,0.73-0.05
		c0.1-0.01,0.2-0.03,0.3-0.04c0.05-0.01,0.09-0.02,0.14-0.02l0.02-0.04l0.15-0.58c-0.06,0.02-0.12,0.05-0.18,0.07
		c-0.17,0.07-0.35,0.14-0.53,0.22c-0.11,0.05-0.22,0.11-0.33,0.18c-0.12,0.07-0.24,0.15-0.36,0.23
		C50.13,15.06,50.11,15.07,50.1,15.09z M54.47,13.41c-0.13,0.05-0.32,0.11-0.59,0.19c-0.26,0.08-0.6,0.19-1.03,0.32
		c-0.02,0.01-0.02,0.01-0.03,0.04l-0.19,0.69c0.24-0.07,0.47-0.15,0.7-0.24c0.35-0.13,0.71-0.28,1.07-0.44
		c1.57-0.64,3.09-1.45,4.54-2.4c1.45-0.95,2.89-2.06,4.26-3.28c0.32-0.29,0.64-0.6,0.95-0.91c0.3-0.31,0.61-0.64,0.9-0.98
		c0.29-0.33,0.53-0.69,0.71-1.07c0.05-0.1,0.09-0.2,0.12-0.3c0.03-0.1,0.06-0.2,0.08-0.32c0.05-0.27-0.04-0.47-0.29-0.64
		c-0.15-0.09-0.33-0.17-0.51-0.22c-0.41-0.11-0.87-0.18-1.35-0.21c-0.28-0.02-0.57-0.03-0.85-0.03c-0.28,0-0.57,0.01-0.86,0.03
		c-0.42,0.02-0.83,0.06-1.23,0.11c-0.4,0.05-0.81,0.12-1.21,0.21c-0.54,0.11-1.08,0.24-1.61,0.38c-0.54,0.14-1.08,0.3-1.6,0.45
		c-0.21,0.06-0.41,0.12-0.61,0.19c-0.17,0.06-0.34,0.11-0.52,0.17c-0.01,0.02-0.01,0.04-0.02,0.06c-0.02,0.06-0.04,0.12-0.07,0.17
		l-1.13,3.94c-0.18,0.62-0.36,1.23-0.53,1.85l-0.45,1.64c0.14-0.04,0.24-0.08,0.31-0.1c0.1-0.03,0.19-0.06,0.27-0.09
		c0.09-0.03,0.18-0.06,0.29-0.09c0.1-0.03,0.27-0.08,0.52-0.16c0.06-0.02,0.1-0.02,0.15-0.02c0.13,0,0.25,0.06,0.34,0.16
		c0.12,0.13,0.16,0.3,0.1,0.47c-0.06,0.19-0.19,0.27-0.28,0.31c-0.06,0.02-0.11,0.04-0.15,0.04C54.63,13.34,54.56,13.37,54.47,13.41
		z"/>
	<path d="M65.87,3.37c0.67,0.34,0.92,0.89,0.75,1.64c-0.07,0.25-0.17,0.51-0.29,0.77c-0.19,0.37-0.42,0.71-0.67,1.03
		c-0.57,0.71-1.18,1.36-1.83,1.96c-0.65,0.6-1.33,1.16-2.03,1.69c-0.7,0.53-1.42,1.03-2.15,1.51c-0.73,0.47-1.45,0.93-2.17,1.38
		c-0.75,0.47-1.53,0.87-2.34,1.2c-0.81,0.33-1.64,0.62-2.5,0.87l-0.6,0.15c-0.05,0.09-0.12,0.31-0.22,0.67
		c-0.1,0.35-0.22,0.77-0.34,1.24c-0.13,0.47-0.26,0.98-0.39,1.52c-0.14,0.54-0.26,1.05-0.38,1.52c-0.11,0.47-0.21,0.89-0.29,1.24
		c-0.08,0.35-0.13,0.58-0.14,0.67c0.02,0.02,0.04,0.03,0.05,0.03c0.16,0.09,0.21,0.22,0.15,0.38c-0.06,0.17-0.17,0.33-0.34,0.48
		c-0.09,0.08-0.18,0.1-0.27,0.07c-0.1-0.03-0.15-0.12-0.15-0.26c0-0.05,0.01-0.11,0.03-0.21c0.06-0.46,0.13-0.91,0.23-1.35
		c0.1-0.44,0.2-0.88,0.32-1.32l1.1-4.26l0.05-0.27l-0.29,0.05c-0.11,0.02-0.2,0.03-0.26,0.03c-0.13,0.01-0.25,0.02-0.38,0.03
		c-0.13,0.01-0.26,0.01-0.38,0.01c-0.15,0-0.3-0.03-0.44-0.09c-0.09-0.03-0.19-0.09-0.29-0.17c-0.14-0.14-0.17-0.3-0.1-0.5
		c0.03-0.15,0.1-0.26,0.21-0.34c0.13-0.11,0.26-0.21,0.39-0.29c0.34-0.22,0.7-0.41,1.08-0.56l0.92-0.36
		c0.1-0.05,0.17-0.13,0.21-0.24c0.25-0.89,0.5-1.77,0.74-2.64c0.25-0.87,0.5-1.75,0.76-2.64c0.13-0.42,0.25-0.84,0.38-1.26
		c0.13-0.42,0.25-0.84,0.38-1.26c0.02-0.05,0.04-0.09,0.06-0.14c0.02-0.05,0.03-0.1,0.03-0.17l-0.24,0.1
		c-0.65,0.25-1.29,0.51-1.91,0.79c-0.62,0.27-1.24,0.58-1.86,0.91C50,7.21,49.58,7.45,49.17,7.71c-0.41,0.26-0.8,0.55-1.18,0.87
		c-0.23,0.19-0.44,0.41-0.64,0.63c-0.2,0.23-0.38,0.47-0.54,0.74c-0.16,0.27-0.27,0.55-0.34,0.82c-0.1,0.44,0.02,0.8,0.38,1.08
		l0.33,0.19l0.15,0.09c0.06,0.03,0.07,0.08,0.05,0.14c-0.02,0.06-0.06,0.09-0.12,0.09c-0.09,0-0.18-0.02-0.26-0.05
		c-0.32-0.1-0.57-0.29-0.75-0.56c-0.1-0.16-0.16-0.32-0.18-0.49c-0.02-0.17-0.01-0.34,0.03-0.52c0.02-0.16,0.06-0.32,0.12-0.47
		c0.06-0.15,0.13-0.31,0.21-0.45c0.29-0.51,0.63-0.95,1.04-1.32c0.46-0.41,0.92-0.77,1.4-1.08c0.47-0.3,0.94-0.57,1.41-0.83
		c0.47-0.26,0.96-0.5,1.46-0.73c0.44-0.22,0.89-0.42,1.34-0.61c0.45-0.19,0.91-0.37,1.38-0.54l0.17-0.05l0.07-0.21l0.51-1.69
		c0.02-0.06,0.04-0.11,0.04-0.15c0.01-0.05,0.01-0.1,0.03-0.15c0.01-0.06,0.02-0.11,0.02-0.15c0-0.05-0.01-0.1-0.03-0.15
		c-0.05-0.1-0.01-0.18,0.1-0.24c0.13-0.07,0.23-0.05,0.31,0.07c0.05,0.07,0.08,0.15,0.1,0.24c0.01,0.1,0.01,0.21,0.01,0.31
		c-0.01,0.1-0.02,0.21-0.04,0.31L55.42,4l-0.1,0.36c0.05,0.02,0.08,0.03,0.11,0.03c0.03-0.01,0.05-0.01,0.08-0.03
		c0.9-0.31,1.82-0.58,2.77-0.82c0.54-0.13,1.07-0.24,1.6-0.33c0.53-0.1,1.07-0.17,1.62-0.23c0.44-0.05,0.89-0.07,1.33-0.08
		c0.44-0.01,0.89,0.01,1.33,0.06c0.19,0.02,0.39,0.05,0.58,0.08c0.19,0.03,0.39,0.07,0.58,0.13C65.53,3.22,65.71,3.29,65.87,3.37z
		 M51.93,14.06c0.02-0.06,0.02-0.1-0.02-0.12c-0.05,0-0.08,0.01-0.1,0.02c-0.18,0.07-0.36,0.14-0.54,0.21
		c-0.18,0.07-0.36,0.14-0.54,0.22c-0.13,0.06-0.25,0.12-0.37,0.2c-0.12,0.07-0.24,0.15-0.37,0.23c-0.09,0.06-0.18,0.14-0.27,0.26
		c-0.1,0.11-0.08,0.19,0.07,0.24c0.07,0.02,0.14,0.04,0.21,0.05c0.07,0.01,0.15,0.02,0.21,0.02c0.25,0,0.51-0.02,0.77-0.05
		c0.1-0.01,0.21-0.03,0.31-0.04c0.1-0.02,0.21-0.04,0.31-0.06l0.02-0.07l0.05-0.12L51.93,14.06z M66.25,4.77
		c0.07-0.39-0.07-0.7-0.41-0.92c-0.18-0.11-0.38-0.2-0.6-0.26c-0.43-0.11-0.9-0.19-1.4-0.22c-0.58-0.03-1.16-0.03-1.75,0
		c-0.42,0.02-0.84,0.06-1.25,0.11c-0.41,0.05-0.82,0.12-1.23,0.21c-0.55,0.11-1.09,0.24-1.63,0.38c-0.54,0.14-1.07,0.29-1.61,0.45
		c-0.21,0.06-0.41,0.12-0.62,0.19c-0.21,0.07-0.42,0.14-0.63,0.21h-0.02c-0.02,0.07-0.05,0.13-0.07,0.2
		c-0.02,0.06-0.05,0.12-0.07,0.18l-1.13,3.95c-0.18,0.62-0.36,1.23-0.53,1.85c-0.17,0.62-0.34,1.23-0.51,1.85
		c-0.01,0.05-0.02,0.09-0.03,0.13c-0.01,0.04-0.01,0.09,0,0.15c0.05-0.02,0.09-0.04,0.13-0.04c0.04-0.01,0.08-0.01,0.11-0.03
		c0.25-0.08,0.43-0.14,0.53-0.17c0.1-0.03,0.19-0.07,0.27-0.09c0.08-0.03,0.17-0.06,0.27-0.09c0.1-0.03,0.28-0.08,0.53-0.16
		c0.08-0.02,0.15-0.01,0.2,0.05c0.05,0.06,0.07,0.12,0.04,0.19c-0.02,0.07-0.06,0.11-0.12,0.14c-0.06,0.02-0.09,0.03-0.09,0.02
		c-0.06,0.02-0.15,0.06-0.27,0.1c-0.13,0.05-0.32,0.11-0.57,0.19c-0.26,0.08-0.6,0.19-1.04,0.33c-0.11,0.03-0.19,0.11-0.22,0.24
		l-0.27,0.98l-0.05,0.15c0.02,0,0.04,0,0.06,0.01c0.02,0.01,0.03,0.01,0.04,0.01c0.38-0.1,0.74-0.22,1.1-0.36
		c0.36-0.14,0.72-0.29,1.09-0.44c1.59-0.65,3.11-1.46,4.59-2.42c1.47-0.96,2.9-2.07,4.29-3.31c0.33-0.3,0.65-0.6,0.97-0.92
		c0.31-0.32,0.62-0.65,0.92-0.99c0.31-0.35,0.56-0.73,0.75-1.13c0.06-0.11,0.1-0.23,0.14-0.33C66.19,5.01,66.22,4.9,66.25,4.77z"/>
	<path d="M67.32,13.05c-0.27,0-0.5-0.1-0.71-0.31c-0.2-0.2-0.35-0.45-0.43-0.74c-0.01-0.02-0.01-0.04-0.02-0.06l-0.49,0.45
		c-0.06,0.05-0.11,0.09-0.15,0.13c-0.05,0.05-0.11,0.11-0.18,0.16c-0.13,0.1-0.25,0.14-0.37,0.14c-0.11,0-0.21-0.04-0.3-0.11
		c-0.15-0.12-0.24-0.29-0.24-0.48c0-0.1,0.01-0.18,0.03-0.24c0.02-0.06,0.03-0.1,0.04-0.14c0.02-0.08,0.04-0.16,0.07-0.24
		c0.17-0.5,0.41-0.98,0.69-1.42c0.07-0.1,0.13-0.18,0.19-0.25c0.08-0.09,0.17-0.17,0.29-0.25c0.17-0.11,0.35-0.17,0.54-0.17
		c0.11,0,0.22,0.02,0.33,0.06c0.12,0.05,0.23,0.11,0.32,0.2c0.18,0.15,0.24,0.37,0.14,0.59c-0.08,0.18-0.24,0.29-0.45,0.29
		c-0.1,0-0.21-0.01-0.34-0.02l-0.04,0l-0.05,0.05l-0.05,0.05c-0.01,0.01-0.02,0.03-0.03,0.05l-0.01,0.02c0,0-0.01,0.02-0.01,0.02
		c0.03-0.02,0.06-0.05,0.09-0.06c0.08-0.06,0.18-0.09,0.27-0.09c0.05,0,0.11,0.01,0.16,0.03c0.14,0.05,0.25,0.16,0.3,0.31
		c0.02,0.04,0.04,0.11,0.04,0.18c0,0,0,0,0,0.01c0.04,0.12,0.07,0.23,0.1,0.34c0.02,0.09,0.06,0.18,0.1,0.27
		c0.02,0.04,0.03,0.07,0.06,0.1c0.04,0.05,0.13,0.16,0.13,0.16l0.02,0.01l0.01-0.01c0.06-0.03,0.12-0.08,0.18-0.14
		c0.12-0.12,0.23-0.25,0.34-0.38c0.11-0.14,0.21-0.28,0.31-0.43c0.13-0.18,0.23-0.34,0.3-0.47c0.08-0.14,0.18-0.3,0.3-0.49
		c0.05-0.1,0.1-0.18,0.16-0.24c0.08-0.09,0.2-0.15,0.33-0.15c0.09,0,0.18,0.03,0.26,0.08l0.01,0.01l0.01,0.01
		c0.15,0.12,0.2,0.32,0.12,0.53l-0.01,0.03l-0.05,0.1c-0.21,0.33-0.39,0.62-0.56,0.88c-0.18,0.27-0.38,0.55-0.62,0.84
		c-0.08,0.09-0.15,0.17-0.22,0.25c-0.08,0.08-0.16,0.16-0.25,0.24c-0.17,0.17-0.39,0.27-0.63,0.29
		C67.35,13.05,67.34,13.05,67.32,13.05z"/>
	<path d="M65.2,12.01c0.06-0.06,0.13-0.13,0.22-0.21c0.09-0.08,0.18-0.16,0.27-0.24c0.09-0.08,0.18-0.16,0.27-0.23
		c0.09-0.07,0.16-0.13,0.21-0.18c0.07-0.07,0.13-0.11,0.17-0.14c0.06-0.05,0.12-0.06,0.18-0.03c0.06,0.02,0.11,0.07,0.13,0.14
		c0.02,0.06,0.03,0.09,0.03,0.1c-0.01,0.01,0,0.05,0.03,0.1c0.03,0.1,0.07,0.21,0.09,0.31c0.03,0.1,0.07,0.21,0.11,0.31
		c0.02,0.06,0.05,0.11,0.09,0.16c0.04,0.05,0.08,0.11,0.13,0.16c0.05,0.06,0.11,0.09,0.19,0.11c0.08,0.02,0.15,0,0.21-0.04
		c0.08-0.05,0.16-0.11,0.24-0.19c0.13-0.13,0.25-0.26,0.36-0.4c0.11-0.14,0.22-0.29,0.33-0.45c0.13-0.18,0.23-0.34,0.31-0.48
		c0.08-0.14,0.18-0.3,0.29-0.48c0.05-0.09,0.09-0.15,0.12-0.19c0.07-0.08,0.15-0.09,0.24-0.03c0.06,0.05,0.07,0.11,0.03,0.21
		l-0.05,0.1c-0.19,0.31-0.38,0.59-0.55,0.86c-0.17,0.26-0.37,0.54-0.6,0.82c-0.07,0.08-0.14,0.16-0.21,0.23
		c-0.07,0.07-0.14,0.15-0.22,0.21c-0.14,0.14-0.29,0.21-0.46,0.22c-0.21,0.01-0.39-0.06-0.55-0.22c-0.17-0.17-0.29-0.38-0.36-0.62
		c-0.02-0.08-0.05-0.16-0.07-0.23c-0.02-0.07-0.05-0.16-0.07-0.25c-0.05,0.03-0.1,0.07-0.17,0.12l-0.67,0.62
		c-0.06,0.05-0.11,0.09-0.15,0.14c-0.05,0.05-0.1,0.09-0.15,0.14c-0.13,0.09-0.23,0.1-0.32,0.03c-0.09-0.07-0.13-0.15-0.13-0.26
		c0-0.07,0.01-0.12,0.02-0.15c0.02-0.06,0.04-0.12,0.05-0.18c0.01-0.06,0.03-0.12,0.05-0.18c0.17-0.49,0.39-0.95,0.67-1.37
		c0.06-0.08,0.11-0.15,0.17-0.22c0.06-0.07,0.13-0.13,0.22-0.19c0.21-0.14,0.41-0.17,0.62-0.09c0.09,0.03,0.17,0.09,0.24,0.15
		c0.09,0.07,0.11,0.15,0.07,0.26c-0.03,0.08-0.1,0.12-0.19,0.12c-0.09,0-0.2-0.01-0.32-0.02c-0.12-0.01-0.21,0.02-0.27,0.09
		c-0.03,0.03-0.07,0.07-0.1,0.1c-0.03,0.03-0.06,0.07-0.09,0.12c-0.09,0.14-0.18,0.29-0.26,0.47c-0.08,0.18-0.16,0.34-0.24,0.49
		c-0.01,0.02-0.04,0.08-0.09,0.18C65.24,11.91,65.21,11.97,65.2,12.01z"/>
	<path d="M71.24,14.32c-0.1,0-0.2-0.02-0.29-0.06c-0.19-0.08-0.33-0.23-0.42-0.43c-0.1-0.25-0.16-0.5-0.16-0.74
		c0,0,0.04-0.66,0.04-0.67c-0.05,0.06-0.11,0.11-0.16,0.17c-0.06,0.06-0.13,0.12-0.2,0.18c-0.06,0.05-0.11,0.09-0.16,0.14
		l-0.02,0.02l-0.02,0.01c-0.1,0.07-0.19,0.12-0.29,0.17c-0.12,0.06-0.25,0.08-0.37,0.08c-0.09,0-0.17-0.01-0.25-0.04
		c-0.14-0.05-0.34-0.17-0.47-0.47c-0.1-0.22-0.13-0.49-0.11-0.79c0.01-0.13,0.03-0.28,0.06-0.46c0.03-0.17,0.06-0.35,0.11-0.53
		c0.04-0.18,0.08-0.36,0.13-0.53c0.05-0.17,0.1-0.32,0.15-0.45c0.07-0.14,0.13-0.23,0.18-0.28c0.13-0.15,0.28-0.18,0.38-0.18
		c0.06,0,0.12,0.01,0.17,0.03c0.2,0.08,0.32,0.26,0.32,0.49c0,0.05-0.01,0.1-0.01,0.15c-0.01,0.04-0.02,0.07-0.03,0.11l-0.2,0.96
		c-0.02,0.11-0.05,0.28-0.08,0.52c-0.01,0.09-0.02,0.19-0.03,0.28c0.07-0.06,0.14-0.12,0.21-0.18c0.1-0.08,0.19-0.16,0.27-0.25
		l0.86-0.91c0.13-0.16,0.27-0.2,0.37-0.2c0.06,0,0.11,0.01,0.16,0.03c0.23,0.08,0.34,0.3,0.29,0.54l-0.05,0.49
		c-0.03,0.21-0.05,0.41-0.09,0.59c-0.03,0.18-0.06,0.36-0.08,0.55c-0.02,0.12-0.03,0.22-0.02,0.31c0.01,0.11,0.01,0.22,0.01,0.34
		c0,0,0.01-0.01,0.01-0.01c0.14-0.1,0.25-0.2,0.36-0.31c0.16-0.16,0.32-0.34,0.46-0.53c0.15-0.2,0.3-0.4,0.45-0.59
		c0.23-0.29,0.44-0.59,0.65-0.9c0.21-0.31,0.43-0.61,0.65-0.91c0.08-0.11,0.14-0.18,0.2-0.24c0.12-0.14,0.26-0.17,0.35-0.17
		c0.09,0,0.18,0.03,0.26,0.09c0.19,0.16,0.23,0.38,0.12,0.58c-0.04,0.06-0.07,0.11-0.09,0.16c-0.03,0.06-0.06,0.11-0.1,0.17
		l-1.2,1.61c-0.16,0.22-0.34,0.44-0.51,0.66c-0.18,0.22-0.38,0.44-0.58,0.64c-0.18,0.18-0.35,0.32-0.51,0.44
		c-0.11,0.09-0.25,0.18-0.41,0.24C71.45,14.3,71.34,14.32,71.24,14.32z"/>
	<path d="M69.22,12.44c0.05,0.05,0.09,0.06,0.14,0.03c0.05-0.02,0.09-0.05,0.13-0.08c0.04-0.03,0.08-0.05,0.11-0.08
		c0.1-0.09,0.21-0.18,0.31-0.27c0.1-0.09,0.2-0.17,0.29-0.27l0.87-0.92c0.07-0.09,0.14-0.12,0.21-0.09c0.1,0.03,0.14,0.11,0.12,0.22
		l-0.05,0.51c-0.02,0.19-0.05,0.38-0.09,0.56c-0.03,0.18-0.06,0.37-0.09,0.56c-0.02,0.13-0.03,0.25-0.03,0.36
		c0.01,0.11,0.01,0.23,0.01,0.36c0,0.06,0.01,0.14,0.03,0.26c0.02,0.09,0.07,0.11,0.15,0.07c0.11-0.03,0.21-0.09,0.29-0.15
		c0.14-0.1,0.26-0.21,0.38-0.33c0.17-0.17,0.33-0.36,0.49-0.56c0.15-0.2,0.31-0.4,0.45-0.59c0.23-0.3,0.45-0.6,0.66-0.91
		c0.21-0.31,0.42-0.61,0.64-0.91c0.07-0.09,0.13-0.16,0.17-0.21c0.08-0.09,0.16-0.11,0.24-0.05c0.07,0.06,0.08,0.13,0.03,0.21
		c-0.03,0.06-0.07,0.11-0.09,0.16c-0.03,0.05-0.06,0.11-0.09,0.16l-1.18,1.59c-0.16,0.22-0.33,0.43-0.5,0.65
		c-0.18,0.22-0.36,0.42-0.56,0.62c-0.17,0.17-0.33,0.31-0.48,0.41c-0.09,0.08-0.21,0.15-0.34,0.21c-0.14,0.06-0.27,0.06-0.38,0.01
		c-0.12-0.05-0.21-0.15-0.27-0.28c-0.09-0.22-0.14-0.43-0.14-0.63c0.01-0.22,0.02-0.43,0.03-0.64c0.01-0.21,0.04-0.42,0.09-0.62
		V11.7c-0.05-0.01-0.07-0.01-0.09,0.01c-0.01,0.02-0.03,0.04-0.05,0.06c-0.1,0.1-0.2,0.21-0.3,0.31c-0.1,0.1-0.2,0.21-0.3,0.31
		c-0.06,0.06-0.12,0.11-0.18,0.16c-0.06,0.05-0.12,0.11-0.18,0.16c-0.08,0.06-0.16,0.1-0.24,0.14c-0.15,0.07-0.29,0.08-0.42,0.03
		c-0.13-0.05-0.23-0.15-0.3-0.31c-0.08-0.18-0.11-0.4-0.09-0.65c0.01-0.13,0.03-0.27,0.06-0.44c0.03-0.17,0.06-0.34,0.1-0.51
		c0.04-0.18,0.08-0.35,0.13-0.51c0.05-0.17,0.09-0.31,0.14-0.42c0.05-0.09,0.09-0.15,0.12-0.19c0.08-0.09,0.17-0.12,0.26-0.09
		c0.09,0.03,0.14,0.11,0.14,0.22c0,0.03,0,0.07-0.01,0.09c-0.01,0.03-0.01,0.06-0.03,0.09l-0.21,0.98
		c-0.02,0.11-0.05,0.29-0.09,0.54C69.22,11.94,69.21,12.19,69.22,12.44z"/>
	<path d="M73.18,19.03c-0.1,0-0.19-0.03-0.27-0.09c-0.18-0.11-0.29-0.28-0.32-0.49c-0.01-0.07-0.02-0.15-0.02-0.23v-0.62h0.03
		c0.01-0.21,0.03-0.4,0.06-0.58c0.03-0.26,0.08-0.53,0.14-0.8c0.09-0.43,0.18-0.86,0.27-1.28c0.09-0.42,0.18-0.85,0.27-1.28
		c0.23-1.1,0.48-2.2,0.75-3.28c0.26-1.06,0.55-2.15,0.85-3.24c0.14-0.53,0.29-1.05,0.47-1.56c0.17-0.51,0.34-1.02,0.51-1.53
		c0.25-0.79,0.57-1.58,0.94-2.34c0.02-0.05,0.05-0.12,0.09-0.18c0.03-0.05,0.07-0.11,0.11-0.16c0.15-0.18,0.3-0.21,0.4-0.21
		c0.03,0,0.07,0,0.1,0.01c0.1,0.02,0.28,0.1,0.37,0.37c0.04,0.13,0.07,0.26,0.07,0.4c0.01,0.17,0.01,0.36-0.02,0.54l-0.07,0.49
		c-0.07,0.49-0.18,0.98-0.32,1.44c-0.14,0.45-0.29,0.91-0.45,1.36c-0.16,0.42-0.34,0.83-0.51,1.23c-0.18,0.4-0.36,0.8-0.56,1.21
		L75.4,9.61c-0.09,0.17-0.15,0.33-0.19,0.48c-0.09,0.39-0.19,0.8-0.29,1.2c-0.1,0.4-0.2,0.8-0.29,1.2
		c-0.09,0.37-0.17,0.72-0.24,1.07c-0.07,0.36-0.15,0.72-0.24,1.09c-0.09,0.36-0.18,0.72-0.25,1.07c-0.08,0.35-0.15,0.7-0.2,1.06
		c-0.02,0.17-0.04,0.35-0.06,0.52c-0.02,0.18-0.04,0.36-0.06,0.55c-0.02,0.17,0,0.32,0.06,0.44l0.03,0.06v0.09
		c0.03,0.19-0.04,0.37-0.21,0.48C73.37,18.99,73.28,19.03,73.18,19.03z"/>
	<path d="M72.87,17.88c0.01-0.3,0.03-0.57,0.07-0.83c0.03-0.26,0.08-0.52,0.14-0.78c0.09-0.43,0.18-0.86,0.27-1.28
		c0.09-0.42,0.18-0.85,0.27-1.28c0.23-1.11,0.48-2.2,0.74-3.27c0.27-1.07,0.55-2.15,0.85-3.23c0.14-0.52,0.29-1.04,0.46-1.55
		c0.17-0.51,0.34-1.02,0.51-1.53c0.25-0.79,0.56-1.56,0.92-2.31c0.02-0.06,0.05-0.11,0.08-0.15c0.03-0.05,0.06-0.09,0.09-0.14
		c0.07-0.08,0.14-0.11,0.21-0.09c0.07,0.02,0.13,0.08,0.16,0.18c0.03,0.1,0.05,0.21,0.05,0.31c0.01,0.17,0.01,0.34-0.02,0.5
		c-0.02,0.17-0.05,0.33-0.07,0.49c-0.07,0.48-0.17,0.94-0.31,1.39c-0.14,0.45-0.29,0.9-0.44,1.34c-0.16,0.41-0.33,0.82-0.5,1.21
		c-0.18,0.4-0.36,0.8-0.56,1.2l-0.67,1.44c-0.09,0.18-0.16,0.36-0.21,0.53c-0.09,0.4-0.19,0.8-0.29,1.21
		c-0.1,0.41-0.2,0.81-0.29,1.21c-0.09,0.36-0.17,0.72-0.24,1.08c-0.07,0.35-0.15,0.71-0.24,1.08c-0.09,0.36-0.18,0.72-0.26,1.08
		c-0.08,0.35-0.15,0.71-0.21,1.08c-0.02,0.18-0.04,0.36-0.06,0.54c-0.02,0.18-0.04,0.36-0.06,0.54c-0.02,0.23,0.01,0.43,0.09,0.6
		v0.05c0.02,0.09-0.01,0.17-0.09,0.22c-0.08,0.06-0.15,0.06-0.22,0c-0.11-0.07-0.18-0.17-0.21-0.31c-0.01-0.06-0.02-0.12-0.02-0.18
		c0-0.06,0-0.12,0-0.18v-0.15H72.87z M77.35,2.03c-0.05,0.07-0.07,0.12-0.09,0.15c-0.3,0.76-0.55,1.52-0.77,2.28
		c-0.16,0.55-0.32,1.1-0.49,1.64c-0.17,0.55-0.32,1.1-0.47,1.66l-0.05,0.26c0.07-0.07,0.12-0.15,0.15-0.24
		c0.09-0.22,0.19-0.43,0.29-0.63c0.1-0.21,0.2-0.42,0.29-0.63c0.19-0.47,0.37-0.94,0.54-1.4c0.17-0.47,0.31-0.95,0.44-1.44
		c0.07-0.26,0.12-0.53,0.16-0.8c0.04-0.27,0.05-0.56,0.04-0.86L77.35,2.03z"/>
</g>
</svg>
